# xmcd
# 
# Track frame offsets:
#     150
#     14787
#     26027
#     40927
#     54570
#     64027
#     82615
#     92075
#     100720
#     109292
#     121305
#     133955
#     141960
#     157060
#     169345
#     181980
#     195540
#     205120
# 
# Disc length: 3084
# 
# Revision: 33
# Processed by: cddbd v1.5.2PL0 Copyright (c) Steve Scherf et al.
# Submitted via: fre:ac v1.0.31
# 
DISCID=fe0c0a12
DTITLE=Johnny Cash - Unearthed - Disc 1 - Who's Gonna Cry
DYEAR=2003
DGENRE=Country
TTITLE0=Long Black Veil
TTITLE1=Flesh And Blood
TTITLE2=Just The Other Side Of Nowhere
TTITLE3=If I Give My Soul
TTITLE4=Understand Your Man
TTITLE5=Banks Of The Ohio
TTITLE6=Two Timin' Woman
TTITLE7=The Caretaker
TTITLE8=Old Chunk Of Coal
TTITLE9=I'm Going To Memphis
TTITLE10=Breaking Bread
TTITLE11=Waiting For A Train
TTITLE12=Casey's Last Ride
TTITLE13=No Earthly Good
TTITLE14=The Fourth Man In The Fire
TTITLE15=Dark As A Dungeon
TTITLE16=Book Review
TTITLE17=Down There By The Train (Alt. Take)
EXTD=YEAR: 2003
EXTT0=
EXTT1=
EXTT2=
EXTT3=
EXTT4=
EXTT5=
EXTT6=
EXTT7=
EXTT8=
EXTT9=
EXTT10=
EXTT11=
EXTT12=
EXTT13=
EXTT14=
EXTT15=
EXTT16=
EXTT17=
PLAYORDER=
